<svg xmlns="http://www.w3.org/2000/svg" xmlns:xlink="http://www.w3.org/1999/xlink" width="1500" zoomAndPan="magnify" viewBox="0 0 1125 599.999999" height="800" preserveAspectRatio="xMidYMid meet" version="1.0"><defs><g/><clipPath id="9201712150"><rect x="0" width="460" y="0" height="207"/></clipPath><clipPath id="2c5d93c809"><rect x="0" width="165" y="0" height="81"/></clipPath><clipPath id="2bd52860e2"><path d="M 60 107.664062 L 649.300781 107.664062 L 649.300781 492.414062 L 60 492.414062 Z M 60 107.664062 " clip-rule="nonzero"/></clipPath></defs><g transform="matrix(1, 0, 0, 1, 562, 221)"><g clip-path="url(#9201712150)"><g fill="#ffffff" fill-opacity="1"><g transform="translate(2.276659, 166.515583)"><g><path d="M 65.6875 21.984375 C 62.375 20.609375 58.410156 17.914062 53.796875 13.90625 C 49.179688 9.894531 45.492188 5.765625 42.734375 1.515625 C 42.273438 1.609375 41.488281 1.65625 40.375 1.65625 C 28.300781 1.65625 19.679688 -1.453125 14.515625 -7.671875 C 9.359375 -13.898438 6.78125 -23.097656 6.78125 -35.265625 L 6.78125 -76.890625 C 6.78125 -89.054688 9.359375 -98.207031 14.515625 -104.34375 C 19.679688 -110.476562 28.300781 -113.546875 40.375 -113.546875 C 52.550781 -113.546875 61.242188 -110.457031 66.453125 -104.28125 C 71.660156 -98.101562 74.265625 -88.972656 74.265625 -76.890625 L 74.265625 -35.265625 C 74.265625 -27.054688 73.085938 -20.207031 70.734375 -14.71875 C 68.390625 -9.238281 64.632812 -5.160156 59.46875 -2.484375 C 64.164062 2.578125 67.992188 5.847656 70.953125 7.328125 Z M 40.375 -15.90625 C 43.882812 -15.90625 46.191406 -17.078125 47.296875 -19.421875 C 48.398438 -21.773438 48.953125 -24.984375 48.953125 -29.046875 L 48.953125 -82.984375 C 48.953125 -87.128906 48.398438 -90.351562 47.296875 -92.65625 C 46.191406 -94.957031 43.882812 -96.109375 40.375 -96.109375 C 36.875 -96.109375 34.613281 -94.976562 33.59375 -92.71875 C 32.582031 -90.46875 32.078125 -87.222656 32.078125 -82.984375 L 32.078125 -29.046875 C 32.078125 -24.984375 32.582031 -21.773438 33.59375 -19.421875 C 34.613281 -17.078125 36.875 -15.90625 40.375 -15.90625 Z M 40.375 -15.90625 "/></g></g></g><g fill="#ffffff" fill-opacity="1"><g transform="translate(83.311886, 166.515583)"><g><path d="M 40.65625 1.65625 C 32.269531 1.65625 25.632812 0.296875 20.75 -2.421875 C 15.863281 -5.140625 12.425781 -9.148438 10.4375 -14.453125 C 8.457031 -19.753906 7.46875 -26.507812 7.46875 -34.71875 L 7.46875 -112.015625 L 31.953125 -112.015625 L 31.953125 -30.984375 C 31.953125 -26.460938 32.523438 -22.863281 33.671875 -20.1875 C 34.828125 -17.519531 37.15625 -16.1875 40.65625 -16.1875 C 44.164062 -16.1875 46.472656 -17.519531 47.578125 -20.1875 C 48.679688 -22.863281 49.234375 -26.460938 49.234375 -30.984375 L 49.234375 -112.015625 L 73.84375 -112.015625 L 73.84375 -34.71875 C 73.84375 -26.507812 72.828125 -19.753906 70.796875 -14.453125 C 68.773438 -9.148438 65.34375 -5.140625 60.5 -2.421875 C 55.664062 0.296875 49.050781 1.65625 40.65625 1.65625 Z M 40.65625 1.65625 "/></g></g></g><g fill="#ffffff" fill-opacity="1"><g transform="translate(164.623664, 166.515583)"><g><path d="M 8.4375 -112.015625 L 33.1875 -112.015625 L 33.1875 0 L 8.4375 0 Z M 8.4375 -112.015625 "/></g></g></g><g fill="#ffffff" fill-opacity="1"><g transform="translate(206.247551, 166.515583)"><g><path d="M 4.015625 -14.9375 L 31.390625 -95.28125 L 5.25 -95.28125 L 5.25 -112.015625 L 55.734375 -112.015625 L 55.734375 -98.046875 L 27.9375 -16.734375 L 56.015625 -16.734375 L 56.015625 0 L 4.015625 0 Z M 4.015625 -14.9375 "/></g></g></g><g fill="#ffffff" fill-opacity="1"><g transform="translate(266.125103, 166.515583)"><g><path d="M 4.015625 -14.9375 L 31.390625 -95.28125 L 5.25 -95.28125 L 5.25 -112.015625 L 55.734375 -112.015625 L 55.734375 -98.046875 L 27.9375 -16.734375 L 56.015625 -16.734375 L 56.015625 0 L 4.015625 0 Z M 4.015625 -14.9375 "/></g></g></g><g fill="#ffffff" fill-opacity="1"><g transform="translate(326.002655, 166.515583)"><g><path d="M 8.296875 -112.015625 L 58.640625 -112.015625 L 58.640625 -95.140625 L 33.046875 -95.140625 L 33.046875 -67.34375 L 52.546875 -67.34375 L 52.546875 -50.203125 L 33.046875 -50.203125 L 33.046875 -16.734375 L 58.921875 -16.734375 L 58.921875 0 L 8.296875 0 Z M 8.296875 -112.015625 "/></g></g></g><g fill="#ffffff" fill-opacity="1"><g transform="translate(387.816203, 166.515583)"><g><path d="M 38.03125 1.65625 C 27.332031 1.65625 19.378906 -1.175781 14.171875 -6.84375 C 8.960938 -12.507812 6.175781 -21.519531 5.8125 -33.875 L 26.96875 -37.0625 C 27.0625 -29.96875 27.914062 -24.875 29.53125 -21.78125 C 31.144531 -18.695312 33.5625 -17.15625 36.78125 -17.15625 C 40.9375 -17.15625 43.015625 -19.875 43.015625 -25.3125 C 43.015625 -29.644531 42.019531 -33.378906 40.03125 -36.515625 C 38.050781 -39.648438 34.941406 -43.015625 30.703125 -46.609375 L 21.015625 -55.046875 C 16.222656 -59.097656 12.515625 -63.40625 9.890625 -67.96875 C 7.265625 -72.53125 5.953125 -77.945312 5.953125 -84.21875 C 5.953125 -93.625 8.738281 -100.863281 14.3125 -105.9375 C 19.894531 -111.007812 27.570312 -113.546875 37.34375 -113.546875 C 47.945312 -113.546875 55.160156 -110.457031 58.984375 -104.28125 C 62.804688 -98.101562 64.859375 -90.585938 65.140625 -81.734375 L 43.84375 -79.109375 C 43.65625 -84.910156 43.125 -89.078125 42.25 -91.609375 C 41.375 -94.148438 39.460938 -95.421875 36.515625 -95.421875 C 34.390625 -95.421875 32.75 -94.519531 31.59375 -92.71875 C 30.445312 -90.925781 29.875 -88.925781 29.875 -86.71875 C 29.875 -82.9375 30.722656 -79.753906 32.421875 -77.171875 C 34.128906 -74.585938 36.875 -71.632812 40.65625 -68.3125 L 49.921875 -60.15625 C 55.453125 -55.457031 59.738281 -50.476562 62.78125 -45.21875 C 65.820312 -39.96875 67.34375 -33.742188 67.34375 -26.546875 C 67.34375 -21.296875 66.117188 -16.523438 63.671875 -12.234375 C 61.234375 -7.953125 57.800781 -4.566406 53.375 -2.078125 C 48.957031 0.410156 43.84375 1.65625 38.03125 1.65625 Z M 38.03125 1.65625 "/></g></g></g></g></g><g transform="matrix(1, 0, 0, 1, 728, 399)"><g clip-path="url(#2c5d93c809)"><g fill="#ffffff" fill-opacity="1"><g transform="translate(0.779757, 64.273575)"><g><path d="M 3.390625 -43.59375 L 20.234375 -43.59375 L 20.234375 -39.234375 L 9.46875 -39.234375 L 9.46875 -24.703125 L 17.8125 -24.703125 L 17.8125 -20.390625 L 9.46875 -20.390625 L 9.46875 0 L 3.390625 0 Z M 3.390625 -43.59375 "/></g></g></g><g fill="#ffffff" fill-opacity="1"><g transform="translate(57.340052, 64.273575)"><g><path d="M 3.71875 -43.59375 L 9.6875 -43.59375 L 9.6875 0 L 3.71875 0 Z M 3.71875 -43.59375 "/></g></g></g><g fill="#ffffff" fill-opacity="1"><g transform="translate(106.20545, 64.273575)"><g><path d="M 8.171875 -39.0625 L 0.8125 -39.0625 L 0.8125 -43.59375 L 21.421875 -43.59375 L 21.421875 -39.0625 L 14.265625 -39.0625 L 14.265625 0 L 8.171875 0 Z M 8.171875 -39.0625 "/></g></g></g></g></g><g clip-path="url(#2bd52860e2)"><path fill="#ffffff" d="M 354.664062 257.289062 L 446.429688 222.039062 L 354.664062 186.3125 L 262.898438 222.03125 Z M 461.09375 375.648438 L 461.09375 333.617188 L 171.183594 222.238281 L 354.664062 150.804688 L 538.148438 222.238281 L 394.496094 277.421875 L 450.507812 298.945312 L 649.527344 222.484375 L 354.664062 107.695312 L 59.800781 222.484375 L 405.085938 355.140625 L 354.664062 374.507812 L 174.960938 305.464844 L 174.960938 423.230469 L 354.664062 492.273438 L 534.375 423.230469 L 534.375 305.464844 L 488.027344 323.269531 L 488.027344 370.890625 L 477.054688 366.117188 Z M 461.09375 375.648438 " fill-opacity="1" fill-rule="evenodd"/></g></svg>