<svg xmlns="http://www.w3.org/2000/svg" xmlns:xlink="http://www.w3.org/1999/xlink" width="500" zoomAndPan="magnify" viewBox="0 0 375 374.999991" height="500" preserveAspectRatio="xMidYMid meet" version="1.0"><defs><g/><clipPath id="c3ce587436"><path d="M 4.792969 68.242188 L 370.042969 68.242188 L 370.042969 306.742188 L 4.792969 306.742188 Z M 4.792969 68.242188 " clip-rule="nonzero"/></clipPath></defs><g clip-path="url(#c3ce587436)"><path fill="#ffffff" d="M 187.5 161.015625 L 244.398438 139.160156 L 187.5 117.007812 L 130.601562 139.152344 Z M 253.492188 234.40625 L 253.492188 208.34375 L 73.730469 139.28125 L 187.5 94.992188 L 301.269531 139.28125 L 212.199219 173.5 L 246.925781 186.84375 L 370.328125 139.4375 L 187.5 68.261719 L 4.671875 139.4375 L 218.761719 221.6875 L 187.5 233.695312 L 76.074219 190.886719 L 76.074219 263.90625 L 187.5 306.71875 L 298.929688 263.90625 L 298.929688 190.886719 L 270.191406 201.925781 L 270.191406 231.453125 L 263.386719 228.496094 Z M 253.492188 234.40625 " fill-opacity="1" fill-rule="evenodd"/></g><g fill="#ffffff" fill-opacity="1"><g transform="translate(183.087487, 263.396438)"><g><path d="M 4.4375 3.65625 C 3.082031 3.65625 2.09375 3.425781 1.46875 2.96875 C 0.84375 2.519531 0.53125 1.921875 0.53125 1.171875 C 0.53125 0.691406 0.675781 0.304688 0.96875 0.015625 C 1.257812 -0.273438 1.679688 -0.484375 2.234375 -0.609375 L 2.234375 -0.765625 C 1.972656 -0.921875 1.773438 -1.097656 1.640625 -1.296875 C 1.503906 -1.503906 1.4375 -1.75 1.4375 -2.03125 C 1.4375 -2.363281 1.539062 -2.632812 1.75 -2.84375 C 1.96875 -3.050781 2.285156 -3.207031 2.703125 -3.3125 L 2.703125 -3.484375 C 1.765625 -3.972656 1.296875 -4.773438 1.296875 -5.890625 C 1.296875 -6.453125 1.421875 -6.953125 1.671875 -7.390625 C 1.929688 -7.828125 2.296875 -8.164062 2.765625 -8.40625 C 3.242188 -8.65625 3.796875 -8.78125 4.421875 -8.78125 C 5.148438 -8.78125 5.753906 -8.625 6.234375 -8.3125 C 6.421875 -8.507812 6.554688 -8.722656 6.640625 -8.953125 C 6.734375 -9.191406 6.796875 -9.457031 6.828125 -9.75 L 6.984375 -9.84375 L 8.03125 -9.59375 C 7.976562 -9.15625 7.847656 -8.785156 7.640625 -8.484375 C 7.429688 -8.179688 7.132812 -7.929688 6.75 -7.734375 L 6.75 -7.578125 C 7.019531 -7.359375 7.222656 -7.097656 7.359375 -6.796875 C 7.492188 -6.503906 7.5625 -6.164062 7.5625 -5.78125 C 7.5625 -5.238281 7.429688 -4.75 7.171875 -4.3125 C 6.910156 -3.882812 6.539062 -3.546875 6.0625 -3.296875 C 5.59375 -3.046875 5.046875 -2.921875 4.421875 -2.921875 C 4.347656 -2.921875 4.21875 -2.925781 4.03125 -2.9375 C 3.820312 -2.945312 3.671875 -2.953125 3.578125 -2.953125 C 3.304688 -2.953125 3.085938 -2.878906 2.921875 -2.734375 C 2.765625 -2.597656 2.6875 -2.421875 2.6875 -2.203125 C 2.6875 -1.929688 2.769531 -1.734375 2.9375 -1.609375 C 3.113281 -1.484375 3.40625 -1.410156 3.8125 -1.390625 L 5.84375 -1.328125 C 6.726562 -1.296875 7.378906 -1.085938 7.796875 -0.703125 C 8.222656 -0.328125 8.4375 0.207031 8.4375 0.90625 C 8.4375 1.414062 8.296875 1.878906 8.015625 2.296875 C 7.742188 2.710938 7.304688 3.039062 6.703125 3.28125 C 6.109375 3.53125 5.351562 3.65625 4.4375 3.65625 Z M 4.421875 -4.015625 C 5.035156 -4.015625 5.507812 -4.171875 5.84375 -4.484375 C 6.175781 -4.804688 6.34375 -5.253906 6.34375 -5.828125 C 6.34375 -6.421875 6.175781 -6.878906 5.84375 -7.203125 C 5.507812 -7.523438 5.035156 -7.6875 4.421875 -7.6875 C 3.804688 -7.6875 3.335938 -7.523438 3.015625 -7.203125 C 2.691406 -6.890625 2.53125 -6.429688 2.53125 -5.828125 C 2.53125 -5.253906 2.691406 -4.804688 3.015625 -4.484375 C 3.335938 -4.171875 3.804688 -4.015625 4.421875 -4.015625 Z M 4.4375 2.5625 C 5.070312 2.5625 5.59375 2.488281 6 2.34375 C 6.40625 2.207031 6.695312 2.023438 6.875 1.796875 C 7.050781 1.566406 7.140625 1.304688 7.140625 1.015625 C 7.140625 0.765625 7.085938 0.5625 6.984375 0.40625 C 6.890625 0.25 6.734375 0.128906 6.515625 0.046875 C 6.304688 -0.0351562 6.019531 -0.0859375 5.65625 -0.109375 L 3.71875 -0.203125 L 3.453125 -0.203125 C 2.367188 -0.179688 1.828125 0.238281 1.828125 1.0625 C 1.828125 2.0625 2.695312 2.5625 4.4375 2.5625 Z M 4.4375 2.5625 "/></g></g></g></svg>